<svg xmlns="http://www.w3.org/2000/svg" xmlns:xlink="http://www.w3.org/1999/xlink" version="1.1" width="1000" height="1000" viewBox="0 0 1000 1000" xml:space="preserve">
<desc>Created with Fabric.js 3.5.0</desc>
<defs>
</defs>
<g transform="matrix(1.6143 0.7395 -0.7395 1.6143 512.3336 500.0119)" id="735976">
<g style="" vector-effect="non-scaling-stroke">
		<g transform="matrix(1 0 0 1 -224.933 85.6359)" id="Layer_1">
<path style="stroke: none; stroke-width: 1; stroke-dasharray: none; stroke-linecap: butt; stroke-dashoffset: 0; stroke-linejoin: miter; stroke-miterlimit: 4; is-custom-font: none; font-file-url: none; fill: rgb(219,173,117); fill-rule: nonzero; opacity: 1;" transform=" translate(-31.0675, -341.6365)" d="M 19.851 364.491 c -7.356 1.537 -15.061 -2.137 -18.337 -9.254 c -3.807 -8.273 -0.187 -18.066 8.086 -21.873 l 29.148 -13.414 c 8.275 -3.807 18.066 -0.187 21.873 8.086 c 3.807 8.273 0.187 18.066 -8.086 21.873 l -29.148 13.414 C 22.231 363.854 21.046 364.241 19.851 364.491 z" stroke-linecap="round"/>
</g>
		<g transform="matrix(1 0 0 1 -225.69 80.835)" id="Layer_1">
<path style="stroke: none; stroke-width: 1; stroke-dasharray: none; stroke-linecap: butt; stroke-dashoffset: 0; stroke-linejoin: miter; stroke-miterlimit: 4; is-custom-font: none; font-file-url: none; fill: rgb(234,189,129); fill-rule: nonzero; opacity: 1;" transform=" translate(-30.3105, -336.8355)" d="M 1.514 355.236 c -3.807 -8.273 -0.187 -18.066 8.086 -21.873 l 29.148 -13.414 c 8.275 -3.807 18.066 -0.187 21.873 8.086 L 1.514 355.236 z" stroke-linecap="round"/>
</g>
		<g transform="matrix(1 0 0 1 10.5917 -29.2094)" id="Layer_1">
<path style="stroke: none; stroke-width: 1; stroke-dasharray: none; stroke-linecap: butt; stroke-dashoffset: 0; stroke-linejoin: miter; stroke-miterlimit: 4; is-custom-font: none; font-file-url: none; fill: rgb(188,42,70); fill-rule: nonzero; opacity: 1;" transform=" translate(-266.5923, -226.7911)" d="M 510.491 213.263 L 440.42 61 c -2.406 -5.23 -7.367 -8.827 -13.089 -9.487 c -5.72 -0.661 -11.369 1.713 -14.905 6.256 l -28.14 36.174 L 90.149 200.707 c -27.378 9.734 -49.553 30.672 -60.84 57.448 c -11.288 26.774 -10.794 57.271 1.353 83.667 s 34.988 46.607 62.667 55.451 c 17.225 5.503 35.474 6.334 52.854 2.704 c 10.549 -2.203 20.778 -6.049 30.26 -11.492 L 448.956 234.47 l 45.78 2.157 c 5.751 0.274 11.228 -2.478 14.447 -7.252 C 512.403 224.601 512.897 218.494 510.491 213.263 z" stroke-linecap="round"/>
</g>
		<g transform="matrix(1 0 0 1 -7.6417 -59.3875)" id="Layer_1">
<path style="stroke: none; stroke-width: 1; stroke-dasharray: none; stroke-linecap: butt; stroke-dashoffset: 0; stroke-linejoin: miter; stroke-miterlimit: 4; is-custom-font: none; font-file-url: none; fill: rgb(214,45,70); fill-rule: nonzero; opacity: 1;" transform=" translate(-248.3589, -196.6129)" d="M 475.534 137.304 L 440.42 61 c -2.406 -5.23 -7.367 -8.827 -13.089 -9.487 c -5.72 -0.661 -11.369 1.713 -14.905 6.256 l -28.14 36.174 L 90.149 200.707 c -27.378 9.734 -49.553 30.672 -60.84 57.448 c -11.288 26.774 -10.794 57.271 1.353 83.667 L 475.534 137.304 z" stroke-linecap="round"/>
</g>
		<g transform="matrix(1 0 0 1 187.2588 -110.508)" id="Layer_1">
<path style="stroke: none; stroke-width: 1; stroke-dasharray: none; stroke-linecap: butt; stroke-dashoffset: 0; stroke-linejoin: miter; stroke-miterlimit: 4; is-custom-font: none; font-file-url: none; fill: rgb(57,183,182); fill-rule: nonzero; opacity: 1;" transform=" translate(-443.2593, -145.4924)" d="M 510.491 213.263 L 440.42 61 c -2.406 -5.23 -7.367 -8.827 -13.089 -9.487 c -5.72 -0.661 -11.369 1.713 -14.905 6.256 l -28.14 36.174 l -9.768 3.545 l 65.39 142.093 l 9.047 -5.114 l 45.78 2.157 c 5.751 0.274 11.228 -2.478 14.447 -7.252 C 512.403 224.601 512.897 218.494 510.491 213.263 z" stroke-linecap="round"/>
</g>
		<g transform="matrix(1 0 0 1 169.0015 -146.047)" id="Layer_1">
<path style="stroke: none; stroke-width: 1; stroke-dasharray: none; stroke-linecap: butt; stroke-dashoffset: 0; stroke-linejoin: miter; stroke-miterlimit: 4; is-custom-font: none; font-file-url: none; fill: rgb(102,203,196); fill-rule: nonzero; opacity: 1;" transform=" translate(-425.002, -109.9534)" d="M 475.486 137.124 L 440.42 61 c -2.406 -5.23 -7.367 -8.827 -13.089 -9.487 c -5.72 -0.661 -11.369 1.713 -14.905 6.256 l -28.14 36.174 l -9.768 3.545 l 32.713 71.015 L 475.486 137.124 z" stroke-linecap="round"/>
</g>
</g>
</g>
</svg>